<svg width="333" height="90" viewBox="0 0 333 90" fill="none" xmlns="http://www.w3.org/2000/svg">
<path d="M316.753 66.6952C314.126 66.6952 311.744 66.2722 309.607 65.4262C307.47 64.5357 305.622 63.289 304.063 61.686C302.505 60.0386 301.325 58.1017 300.523 55.8754C299.722 53.6046 299.321 51.0889 299.321 48.3283C299.321 44.5881 300.034 41.36 301.459 38.6439C302.928 35.8833 304.976 33.746 307.603 32.2321C310.275 30.6737 313.414 29.8945 317.02 29.8945C320.004 29.8945 322.653 30.4511 324.968 31.5643C327.284 32.6774 329.131 34.2358 330.512 36.2395C331.937 38.1986 332.716 40.4917 332.849 43.1187H324.701C324.478 41.7384 323.989 40.5807 323.232 39.6457C322.519 38.7107 321.606 37.9982 320.493 37.5085C319.38 37.0187 318.156 36.7738 316.82 36.7738C314.905 36.7738 313.258 37.2636 311.878 38.2431C310.497 39.1782 309.451 40.514 308.739 42.2505C308.071 43.987 307.737 46.0129 307.737 48.3283C307.737 50.8662 308.115 52.9812 308.872 54.6732C309.629 56.3652 310.675 57.6564 312.011 58.5469C313.391 59.3929 314.972 59.8159 316.753 59.8159C318.312 59.8159 319.67 59.5488 320.827 59.0145C321.985 58.4356 322.898 57.6564 323.566 56.6769C324.278 55.6528 324.701 54.4951 324.835 53.2038H332.983C332.805 55.9199 332.003 58.3021 330.578 60.3502C329.154 62.3539 327.261 63.9123 324.901 65.0255C322.542 66.1386 319.825 66.6952 316.753 66.6952Z" fill="white"/>
<path d="M286.848 66.0943V30.5627H295.196V66.0943H286.848ZM286.848 25.5535V17.4053H295.196V25.5535H286.848Z" fill="white"/>
<path d="M275.689 66.094C273.507 66.094 271.793 65.7823 270.546 65.159C269.344 64.4911 268.498 63.5561 268.008 62.3539C267.519 61.1517 267.274 59.7046 267.274 58.0126V37.308H260.729V30.5624H267.274V20.544L275.556 19.6758V30.5624H283.103V37.308H275.556V56.4764C275.556 57.5896 275.801 58.3465 276.29 58.7473C276.78 59.1035 277.537 59.2816 278.561 59.2816H283.103V66.094H275.689Z" fill="white"/>
<path d="M226.576 66.0941V30.5624H234.591L234.925 37.3081H235.326C236.35 34.8146 237.908 32.9668 240.001 31.7646C242.093 30.5179 244.431 29.8945 247.014 29.8945C248.795 29.8945 250.442 30.1839 251.956 30.7628C253.514 31.2971 254.85 32.1654 255.963 33.3676C257.121 34.5252 258.011 36.0614 258.635 37.976C259.303 39.8461 259.637 42.1169 259.637 44.7884V66.0941H251.288V46.5917C251.288 44.3654 251.021 42.5399 250.487 41.1151C249.952 39.6457 249.129 38.5548 248.015 37.8424C246.947 37.13 245.544 36.7738 243.808 36.7738C241.938 36.7738 240.335 37.219 238.999 38.1096C237.708 39.0001 236.706 40.18 235.993 41.6494C235.281 43.1187 234.925 44.7439 234.925 46.525V66.0941H226.576Z" fill="white"/>
<path d="M199.723 66.6952C197.586 66.6952 195.627 66.3167 193.846 65.5598C192.11 64.7583 190.596 63.5784 189.304 62.02C188.058 60.4616 187.1 58.5469 186.433 56.2761C185.765 53.9608 185.431 51.3115 185.431 48.3283C185.431 44.2764 186.01 40.8924 187.167 38.1763C188.369 35.4157 190.039 33.3453 192.176 31.965C194.358 30.5847 196.874 29.8945 199.723 29.8945C201.683 29.8945 203.419 30.2062 204.933 30.8296C206.491 31.4084 207.827 32.2321 208.94 33.3008C210.053 34.3694 210.899 35.6384 211.478 37.1077H211.946L212.28 30.5624H220.294V66.0941H211.946V59.482H211.478C210.632 61.6638 209.185 63.4225 207.137 64.7583C205.089 66.0496 202.618 66.6952 199.723 66.6952ZM202.863 59.8827C204.866 59.8827 206.514 59.4152 207.805 58.4802C209.141 57.5451 210.143 56.3429 210.81 54.8736C211.478 53.3597 211.812 51.779 211.812 50.1316V46.4582C211.812 44.7662 211.478 43.1855 210.81 41.7162C210.143 40.2023 209.141 39.0001 207.805 38.1096C206.514 37.1745 204.866 36.707 202.863 36.707C201.082 36.707 199.523 37.13 198.187 37.976C196.852 38.822 195.805 40.1132 195.048 41.8497C194.291 43.5417 193.913 45.7012 193.913 48.3283C193.913 50.8662 194.291 53.0035 195.048 54.74C195.805 56.4765 196.852 57.7677 198.187 58.6137C199.523 59.4597 201.082 59.8827 202.863 59.8827Z" fill="white"/>
<path d="M172.957 66.0943V17.4053H181.306V66.0943H172.957Z" fill="white"/>
<path d="M161.799 66.094C159.617 66.094 157.903 65.7823 156.656 65.159C155.454 64.4911 154.608 63.5561 154.118 62.3539C153.628 61.1517 153.383 59.7046 153.383 58.0126V37.308H146.838V30.5624H153.383V20.544L161.665 19.6758V30.5624H169.212V37.308H161.665V56.4764C161.665 57.5896 161.91 58.3465 162.4 58.7473C162.889 59.1035 163.646 59.2816 164.671 59.2816H169.212V66.094H161.799Z" fill="white"/>
<path d="M105.278 66.0943L122.042 17.4053H134.465L151.229 66.0943H142.079L138.406 55.4081H118.102L114.495 66.0943H105.278ZM120.239 48.5957H136.335L131.526 34.904L128.454 25.4867H128.12L124.981 34.904L120.239 48.5957Z" fill="white"/>
<path d="M86.1643 45.0006C86.1643 67.7353 67.7343 86.1653 44.9997 86.1653C22.265 86.1653 3.83496 67.7353 3.83496 45.0006C3.83496 22.266 22.265 3.83594 44.9997 3.83594C67.7343 3.83594 86.1643 22.266 86.1643 45.0006Z" fill="url(#paint0_linear_1123_1207)"/>
<path fill-rule="evenodd" clip-rule="evenodd" d="M89.9998 44.9999C89.9998 69.8527 69.8527 89.9998 44.9999 89.9998C20.1471 89.9998 0 69.8527 0 44.9999C0 20.1471 20.1471 0 44.9999 0C69.8527 0 89.9998 20.1471 89.9998 44.9999ZM44.9999 86.1646C67.7345 86.1646 86.1646 67.7345 86.1646 44.9999C86.1646 22.2653 67.7345 3.83522 44.9999 3.83522C22.2653 3.83522 3.83522 22.2653 3.83522 44.9999C3.83522 67.7345 22.2653 86.1646 44.9999 86.1646Z" fill="white"/>
<mask id="mask0_1123_1207" style="mask-type:alpha" maskUnits="userSpaceOnUse" x="3" y="3" width="84" height="84">
<circle cx="44.9996" cy="44.9996" r="41.1647" fill="url(#paint1_linear_1123_1207)"/>
</mask>
<g mask="url(#mask0_1123_1207)">
<g filter="url(#filter0_f_1123_1207)">
<ellipse cx="9.61119" cy="-34.2325" rx="89.0877" ry="68.9882" transform="rotate(53.7885 9.61119 -34.2325)" fill="#0E0E0E"/>
</g>
</g>
<g filter="url(#filter1_d_1123_1207)">
<path d="M46.3752 16.6574C45.8349 15.3603 44.0772 15.3603 43.5369 16.6574C36.9516 32.4675 24.6995 42.1046 22.6553 43.6329C21.7868 44.2821 21.7868 45.6304 22.6553 46.2797C24.6995 47.808 36.9516 57.4451 43.5369 73.2551C44.0772 74.5522 45.8349 74.5522 46.3752 73.2551C52.9606 57.4451 65.2126 47.808 67.2569 46.2797C68.1253 45.6304 68.1254 44.2821 67.2569 43.6329C65.2127 42.1046 52.9606 32.4675 46.3752 16.6574Z" fill="url(#paint2_linear_1123_1207)" shape-rendering="crispEdges"/>
</g>
<path fill-rule="evenodd" clip-rule="evenodd" d="M44.9561 19.783C38.6721 33.3796 28.6296 42.1654 25.1227 44.9563C28.6296 47.7471 38.6721 56.5329 44.9561 70.1295C51.2401 56.5329 61.2826 47.7471 64.7894 44.9563C61.2826 42.1654 51.2401 33.3796 44.9561 19.783ZM43.5369 16.6574C44.0772 15.3603 45.8349 15.3603 46.3752 16.6574C52.9606 32.4675 65.2127 42.1046 67.2569 43.6329C68.1254 44.2821 68.1253 45.6304 67.2569 46.2797C65.2127 47.808 52.9606 57.4451 46.3752 73.2551C45.8349 74.5522 44.0772 74.5522 43.5369 73.2551C36.9516 57.4451 24.6995 47.808 22.6553 46.2797C21.7868 45.6304 21.7868 44.2821 22.6553 43.6329C24.6995 42.1046 36.9516 32.4675 43.5369 16.6574Z" fill="url(#paint3_linear_1123_1207)"/>
<defs>
<filter id="filter0_f_1123_1207" x="-91.0425" y="-140.926" width="201.308" height="213.388" filterUnits="userSpaceOnUse" color-interpolation-filters="sRGB">
<feFlood flood-opacity="0" result="BackgroundImageFix"/>
<feBlend mode="normal" in="SourceGraphic" in2="BackgroundImageFix" result="shape"/>
<feGaussianBlur stdDeviation="12.0247" result="effect1_foregroundBlur_1123_1207"/>
</filter>
<filter id="filter1_d_1123_1207" x="17.4213" y="12.1044" width="55.0695" height="67.7081" filterUnits="userSpaceOnUse" color-interpolation-filters="sRGB">
<feFlood flood-opacity="0" result="BackgroundImageFix"/>
<feColorMatrix in="SourceAlpha" type="matrix" values="0 0 0 0 0 0 0 0 0 0 0 0 0 0 0 0 0 0 127 0" result="hardAlpha"/>
<feOffset dy="1.00244"/>
<feGaussianBlur stdDeviation="2.29129"/>
<feComposite in2="hardAlpha" operator="out"/>
<feColorMatrix type="matrix" values="0 0 0 0 0 0 0 0 0 0 0 0 0 0 0 0 0 0 0.21 0"/>
<feBlend mode="normal" in2="BackgroundImageFix" result="effect1_dropShadow_1123_1207"/>
<feBlend mode="normal" in="SourceGraphic" in2="effect1_dropShadow_1123_1207" result="shape"/>
</filter>
<linearGradient id="paint0_linear_1123_1207" x1="74.008" y1="89.9395" x2="27.5332" y2="0.14955" gradientUnits="userSpaceOnUse">
<stop offset="0.0700125" stop-color="white"/>
<stop offset="0.175313" stop-color="#DCACFF"/>
<stop offset="0.354324" stop-color="#AD68F3"/>
<stop offset="0.663206" stop-color="#2B2883"/>
<stop offset="0.933478" stop-color="#0C0C0C"/>
</linearGradient>
<linearGradient id="paint1_linear_1123_1207" x1="86.1643" y1="159.673" x2="16.9567" y2="0.675189" gradientUnits="userSpaceOnUse">
<stop offset="0.0700125" stop-color="white"/>
<stop offset="0.175313" stop-color="#DCACFF"/>
<stop offset="0.354324" stop-color="#AD68F3"/>
<stop offset="0.663206" stop-color="#2B2883"/>
<stop offset="0.933478" stop-color="#0C0C0C"/>
</linearGradient>
<linearGradient id="paint2_linear_1123_1207" x1="44.9561" y1="15.6846" x2="77.4753" y2="75.9395" gradientUnits="userSpaceOnUse">
<stop offset="0.109375" stop-color="white"/>
<stop offset="1" stop-color="white" stop-opacity="0"/>
</linearGradient>
<linearGradient id="paint3_linear_1123_1207" x1="78.7919" y1="89.1491" x2="28.8501" y2="18.0983" gradientUnits="userSpaceOnUse">
<stop stop-color="white"/>
<stop offset="1" stop-color="white" stop-opacity="0"/>
</linearGradient>
</defs>
</svg>
