<svg width="411" height="90" viewBox="0 0 411 90" fill="none" xmlns="http://www.w3.org/2000/svg">
<path d="M139.954 53.5721C139.448 56.6808 138.092 59.1569 135.887 61.0005C133.718 62.8079 130.736 63.7116 126.941 63.7116C124.121 63.7116 121.573 63.1513 119.296 62.0307C117.018 60.874 115.211 59.2292 113.873 57.0965C112.536 54.9277 111.867 52.325 111.867 49.2886C111.867 46.2161 112.518 43.6135 113.819 41.4807C115.157 39.3119 116.964 37.6672 119.241 36.5466C121.519 35.3899 124.049 34.8115 126.832 34.8115C129.363 34.8115 131.658 35.3537 133.718 36.4381C135.779 37.5226 137.406 39.1311 138.598 41.2639C139.791 43.3604 140.388 46.0173 140.388 49.2344H121.681C121.681 49.632 121.681 50.0297 121.681 50.4273C121.717 50.7888 121.754 51.1322 121.79 51.4575C122.007 54.3855 122.693 56.5543 123.85 57.9641C125.043 59.3738 126.724 60.0787 128.893 60.0787C129.001 60.0787 129.092 60.0787 129.164 60.0787C129.272 60.0787 129.363 60.0787 129.435 60.0787C131.315 60.0064 132.833 59.41 133.99 58.2894C135.146 57.1327 135.923 55.5603 136.321 53.5721H139.954ZM126.887 37.8479C125.368 37.8479 124.175 38.5347 123.308 39.9083C122.477 41.2458 121.97 43.3423 121.79 46.198H131.766C131.694 43.3423 131.26 41.2458 130.465 39.9083C129.67 38.5347 128.477 37.8479 126.887 37.8479Z" fill="#323232"/>
<path d="M165.649 58.7232H165.378C164.402 60.3498 163.119 61.5969 161.528 62.4645C159.974 63.2959 158.221 63.7116 156.269 63.7116C154.028 63.7116 151.949 63.1513 150.033 62.0307C148.154 60.9101 146.635 59.3015 145.479 57.205C144.358 55.0723 143.798 52.5419 143.798 49.614C143.798 46.433 144.358 43.74 145.479 41.535C146.635 39.33 148.172 37.6672 150.087 36.5466C152.039 35.3899 154.19 34.8115 156.54 34.8115C158.13 34.8115 159.594 35.1368 160.932 35.7875C162.305 36.4381 163.48 37.3961 164.456 38.6612V29.0098C164.456 28.3591 164.312 27.8892 164.022 27.6C163.733 27.3109 163.354 27.1663 162.884 27.1663H160.498V24.1299H173.999V58.2894C173.999 58.9401 174.126 59.41 174.379 59.6992C174.668 59.9883 175.047 60.1329 175.517 60.1329H177.903V63.1693H165.649V58.7232ZM164.619 49.614C164.619 45.9992 164.167 43.3243 163.263 41.5892C162.396 39.8541 161.058 38.9866 159.251 38.9866C157.443 38.9866 156.088 39.8541 155.184 41.5892C154.281 43.2881 153.829 45.945 153.829 49.5597C153.829 53.0661 154.281 55.6506 155.184 57.3134C156.088 58.9401 157.443 59.7534 159.251 59.7534C161.058 59.7534 162.396 58.9401 163.263 57.3134C164.167 55.6506 164.619 53.0841 164.619 49.614Z" fill="#323232"/>
<path d="M188.457 32.3173C186.902 32.3173 185.637 31.8655 184.661 30.9618C183.685 30.0581 183.197 28.8652 183.197 27.3832C183.197 25.865 183.685 24.654 184.661 23.7503C185.637 22.8466 186.902 22.3948 188.457 22.3948C190.047 22.3948 191.33 22.8466 192.306 23.7503C193.319 24.654 193.825 25.865 193.825 27.3832C193.825 28.8652 193.319 30.0581 192.306 30.9618C191.33 31.8655 190.047 32.3173 188.457 32.3173ZM193.608 35.3537V58.2894C193.608 58.9039 193.752 59.3738 194.042 59.6992C194.331 59.9883 194.692 60.1329 195.126 60.1329H197.62V63.1693H180.052V60.1329H182.492C182.962 60.1329 183.342 59.9883 183.631 59.6992C183.92 59.3738 184.065 58.9039 184.065 58.2894V40.2336C184.065 39.6191 183.92 39.1673 183.631 38.8781C183.342 38.5528 182.962 38.3901 182.492 38.3901H180.052V35.3537H193.608Z" fill="#323232"/>
<path d="M215.964 60.1329V63.1693H199.697V60.1329H202.137C202.607 60.1329 202.987 59.9883 203.276 59.6992C203.565 59.3738 203.709 58.9039 203.709 58.2894V40.2336C203.709 39.6191 203.565 39.1673 203.276 38.8781C202.987 38.5528 202.607 38.3901 202.137 38.3901H199.697V35.3537H212.927V40.071H213.198C214.355 38.5528 215.765 37.3057 217.428 36.3297C219.126 35.3176 221.06 34.8115 223.229 34.8115C226.157 34.8115 228.398 35.679 229.953 37.4141C231.507 39.1131 232.284 41.5892 232.284 44.8425V58.2894C232.284 58.9401 232.429 59.41 232.718 59.6992C233.007 59.9883 233.387 60.1329 233.857 60.1329H236.297V63.1693H220.03V60.1329H221.223C221.657 60.1329 222.018 59.9883 222.307 59.6992C222.597 59.3738 222.741 58.9039 222.741 58.2894V43.5954C222.741 42.4025 222.452 41.4807 221.874 40.8301C221.331 40.1794 220.5 39.8541 219.38 39.8541C218.114 39.8541 216.94 40.324 215.855 41.2639C214.807 42.1675 213.939 43.3062 213.252 44.6798V58.2894C213.252 58.9039 213.379 59.3738 213.632 59.6992C213.921 59.9883 214.301 60.1329 214.771 60.1329H215.964Z" fill="#323232"/>
<path d="M270.777 48.9633C270.777 52.1082 270.217 54.7831 269.096 56.9881C267.975 59.1931 266.457 60.874 264.541 62.0307C262.626 63.1513 260.475 63.7116 258.089 63.7116C256.209 63.7116 254.492 63.2778 252.938 62.4102C251.384 61.5427 250.1 60.2956 249.088 58.669L247.136 63.1693H240.575V29.0098C240.575 28.3591 240.431 27.8892 240.142 27.6C239.889 27.3109 239.527 27.1663 239.057 27.1663H236.617V24.1299H250.173V38.607C251.185 37.378 252.378 36.4381 253.751 35.7875C255.161 35.1368 256.697 34.8115 258.36 34.8115C260.637 34.8115 262.716 35.3899 264.596 36.5466C266.475 37.6672 267.975 39.2757 269.096 41.3723C270.217 43.4689 270.777 45.9992 270.777 48.9633ZM250.01 48.9091C250.01 52.4516 250.444 55.1084 251.311 56.8796C252.215 58.6509 253.571 59.5365 255.378 59.5365C257.185 59.5365 258.523 58.669 259.39 56.9339C260.294 55.1988 260.746 52.5419 260.746 48.9633C260.746 45.457 260.294 42.8905 259.39 41.2639C258.523 39.6011 257.185 38.7697 255.378 38.7697C253.571 38.7697 252.215 39.6011 251.311 41.2639C250.444 42.8905 250.01 45.4389 250.01 48.9091Z" fill="#323232"/>
<path d="M304.633 35.3537V58.2894C304.633 58.9039 304.778 59.3738 305.067 59.6992C305.356 59.9883 305.736 60.1329 306.206 60.1329H308.646V63.1693H295.416V58.7232H295.145C293.916 60.0968 292.434 61.2716 290.699 62.2476C289 63.2236 287.084 63.7116 284.951 63.7116C282.493 63.7116 280.541 63.0067 279.095 61.5969C277.685 60.1872 276.981 57.8918 276.981 54.7108V40.2336C276.981 39.6191 276.836 39.1673 276.547 38.8781C276.258 38.5528 275.878 38.3901 275.408 38.3901H272.968V35.3537H286.523V54.277C286.523 55.8314 286.795 56.9519 287.337 57.6387C287.915 58.3256 288.747 58.669 289.831 58.669C290.915 58.669 291.928 58.3256 292.867 57.6387C293.807 56.9158 294.548 56.1025 295.091 55.1988V40.2336C295.091 39.6191 294.946 39.1673 294.657 38.8781C294.404 38.5528 294.042 38.3901 293.572 38.3901H291.078V35.3537H304.633Z" fill="#323232"/>
<path d="M329.171 60.1329V63.1693H310.682V60.1329H313.122C313.628 60.1329 314.007 59.9883 314.26 59.6992C314.55 59.3738 314.694 58.9039 314.694 58.2894V40.2336C314.694 39.6191 314.55 39.1673 314.26 38.8781C314.007 38.5528 313.628 38.3901 313.122 38.3901H310.682V35.3537H323.912V40.7759H324.183C325.34 38.7154 326.677 37.2153 328.195 36.2755C329.713 35.2995 331.268 34.8115 332.858 34.8115C334.702 34.8115 336.13 35.3718 337.142 36.4924C338.154 37.5768 338.66 38.9143 338.66 40.5048C338.66 41.9868 338.226 43.1616 337.359 44.0292C336.527 44.8605 335.497 45.2762 334.268 45.2762C333.111 45.2762 332.135 44.969 331.34 44.3545C330.581 43.74 330.201 42.8724 330.201 41.7519C330.201 41.1012 330.364 40.577 330.689 40.1794C330.617 40.1433 330.527 40.1252 330.418 40.1252C330.31 40.1252 330.22 40.1252 330.147 40.1252C329.28 40.1252 328.448 40.3782 327.653 40.8843C326.894 41.3904 326.225 42.0953 325.647 42.9989C325.068 43.8665 324.599 44.8605 324.237 45.9811V58.2894C324.237 58.9039 324.364 59.3738 324.617 59.6992C324.906 59.9883 325.285 60.1329 325.755 60.1329H329.171Z" fill="#323232"/>
<path d="M372.485 64.9586C372.485 66.8745 371.87 68.5553 370.641 70.0012C369.448 71.4472 367.641 72.5677 365.219 73.363C362.833 74.1582 359.833 74.5559 356.218 74.5559C353.254 74.5559 350.652 74.3751 348.411 74.0136C346.206 73.6522 344.489 73.0376 343.26 72.1701C342.067 71.3387 341.47 70.1639 341.47 68.6457C341.47 67.5974 341.832 66.6576 342.555 65.8262C343.278 64.9948 344.398 64.3441 345.916 63.8742C344.145 63.2959 342.88 62.5187 342.121 61.5427C341.362 60.5306 340.946 59.4642 340.874 58.3436C340.838 57.693 340.892 57.0604 341.036 56.4459C341.253 55.3614 341.814 54.4216 342.717 53.6264C343.657 52.795 344.94 52.1443 346.567 51.6744C345.338 50.8791 344.344 49.9031 343.585 48.7464C342.862 47.5897 342.482 46.2703 342.446 44.7882C342.446 44.1737 342.5 43.5954 342.609 43.0532C342.898 41.3542 343.657 39.9083 344.886 38.7154C346.151 37.4864 347.742 36.5647 349.658 35.9501C351.573 35.2995 353.688 34.9742 356.002 34.9742C356.363 34.9742 356.725 34.9922 357.086 35.0284C357.484 35.0284 357.845 35.0645 358.17 35.1368C359.183 32.8595 360.52 31.0702 362.183 29.7689C363.846 28.4314 365.87 27.7627 368.256 27.7627C369.955 27.7627 371.256 28.1965 372.16 29.064C373.099 29.9316 373.569 30.9979 373.569 32.2631C373.569 33.456 373.19 34.3958 372.431 35.0826C371.708 35.7694 370.858 36.1128 369.882 36.1128C369.015 36.1128 368.274 35.914 367.659 35.5164C367.081 35.1188 366.683 34.5404 366.466 33.7813C366.43 33.456 366.43 33.1306 366.466 32.8053C366.502 32.2631 366.683 31.8112 367.009 31.4498C366.647 31.4136 366.286 31.4317 365.924 31.504C364.984 31.7209 364.135 32.2089 363.376 32.968C362.653 33.7271 362.056 34.6488 361.586 35.7333C363.538 36.3478 365.183 37.2695 366.521 38.4986C367.858 39.6914 368.689 41.2096 369.015 43.0532C369.123 43.5954 369.159 44.1737 369.123 44.7882C369.087 46.7402 368.473 48.403 367.28 49.7766C366.123 51.1502 364.55 52.1985 362.562 52.9215C360.61 53.6444 358.423 54.0059 356.002 54.0059C354.953 54.0059 353.941 53.9517 352.965 53.8432C352.025 53.6987 351.104 53.4998 350.2 53.2468C348.826 53.283 347.85 53.4998 347.272 53.8975C346.73 54.2951 346.459 54.7831 346.459 55.3614C346.459 55.3976 346.459 55.4337 346.459 55.4699C346.459 55.4699 346.459 55.488 346.459 55.5241C346.495 56.2109 346.91 56.6989 347.706 56.9881C348.501 57.2773 349.947 57.4219 352.043 57.4219H359.255C359.616 57.4219 359.96 57.4219 360.285 57.4219C360.61 57.4219 360.936 57.4219 361.261 57.4219C365.273 57.458 368.147 58.1267 369.882 59.4281C371.617 60.6932 372.485 62.5368 372.485 64.9586ZM351.447 44.4087C351.447 46.7222 351.827 48.4392 352.586 49.5597C353.345 50.6803 354.483 51.2406 356.002 51.2406C357.484 51.2406 358.586 50.6803 359.309 49.5597C360.032 48.4392 360.394 46.7222 360.394 44.4087C360.394 42.0952 360.032 40.4144 359.309 39.3661C358.586 38.2817 357.484 37.7395 356.002 37.7395C354.483 37.7395 353.345 38.2817 352.586 39.3661C351.827 40.4144 351.447 42.0952 351.447 44.4087ZM356.164 71.5737C358.369 71.5737 360.14 71.4291 361.478 71.1399C362.815 70.8869 363.773 70.4892 364.352 69.947C364.93 69.4048 365.219 68.7722 365.219 68.0493C365.219 67.2179 364.948 66.5672 364.406 66.0973C363.864 65.6274 362.924 65.284 361.586 65.0671C360.285 64.8502 358.478 64.7418 356.164 64.7418C353.887 64.7418 352.098 64.8502 350.796 65.0671C349.495 65.3201 348.573 65.6997 348.031 66.2057C347.489 66.7118 347.218 67.3444 347.218 68.1035C347.218 69.2602 347.904 70.1278 349.278 70.7061C350.652 71.2845 352.947 71.5737 356.164 71.5737Z" fill="#323232"/>
<path d="M390.002 60.1329V63.1693H373.736V60.1329H376.23C376.7 60.1329 377.061 59.9883 377.314 59.6992C377.604 59.3738 377.748 58.9039 377.748 58.2894V57.9099V29.0098C377.748 28.3591 377.604 27.8892 377.314 27.6C377.061 27.3109 376.7 27.1663 376.23 27.1663H373.736V24.1299H387.291V39.9625H387.345C388.321 38.7335 389.442 37.6852 390.707 36.8177C391.972 35.914 393.436 35.3356 395.099 35.0826C395.93 34.9019 396.798 34.8296 397.702 34.8657C400.521 34.938 402.672 35.8236 404.154 37.5226C405.636 39.2215 406.377 41.6615 406.377 44.8425V58.2894C406.377 58.9401 406.504 59.41 406.757 59.6992C407.046 59.9883 407.425 60.1329 407.895 60.1329H410.39V63.1693H394.123V60.1329H395.262C395.732 60.1329 396.111 59.9883 396.4 59.6992C396.69 59.3738 396.834 58.9039 396.834 58.2894V43.5954C396.834 43.3423 396.798 43.1255 396.726 42.9447C396.69 42.764 396.617 42.6013 396.509 42.4567C396.256 40.7216 395.226 39.8541 393.418 39.8541C392.153 39.8541 390.996 40.324 389.948 41.2639C388.9 42.1675 388.014 43.3062 387.291 44.6798V58.2894C387.291 58.9039 387.436 59.3738 387.725 59.6992C388.014 59.9883 388.394 60.1329 388.864 60.1329H390.002Z" fill="#323232"/>
<rect width="90" height="90" rx="18.1579" fill="#377E62"/>
<path d="M29.9998 29.9763H33.2492C34.6245 29.9763 35.6389 29.7013 36.2922 29.1511C36.9455 28.5666 37.2721 27.6898 37.2721 26.5207V24.7155H40.3667V38.177H37.2721V36.3718C37.2721 35.2028 36.9455 34.3431 36.2922 33.793C35.6389 33.2085 34.6245 32.9162 33.2492 32.9162H29.9998V44.5209C29.9998 45.1398 30.103 45.6384 30.3093 46.0166C30.5156 46.3949 30.8422 46.6871 31.2892 46.8934C31.7706 47.0654 32.4067 47.1513 33.1976 47.1513H35.7764C37.6675 47.1513 39.2148 46.9966 40.4183 46.6871C41.6561 46.3777 42.6189 45.8619 43.3066 45.1398C44.0286 44.3834 44.5788 43.3518 44.957 42.0452C45.3696 40.7043 45.7135 39.0194 45.9886 36.9907H49.3926V50.2459H15.9194V47.1513H18.4983C19.0828 47.1513 19.5642 46.9622 19.9424 46.584C20.3206 46.1714 20.5097 45.5353 20.5097 44.6756V19.7126C20.5097 18.853 20.3206 18.2341 19.9424 17.8558C19.5642 17.4432 19.0828 17.2369 18.4983 17.2369H15.9194V14.1423H49.3926V26.5723H45.9886C45.7135 24.5436 45.3696 22.9275 44.957 21.7241C44.5788 20.4862 44.0286 19.5407 43.3066 18.8874C42.6189 18.1997 41.6561 17.7527 40.4183 17.5464C39.2148 17.3401 37.6675 17.2369 35.7764 17.2369H29.9998V29.9763Z" fill="white"/>
<path fill-rule="evenodd" clip-rule="evenodd" d="M71.8424 63.9479H13.4214V60.0005H71.8424V63.9479Z" fill="white"/>
<path fill-rule="evenodd" clip-rule="evenodd" d="M71.8425 50.5265L59.2109 50.5265L59.2109 46.5791L71.8425 46.5791L71.8425 50.5265Z" fill="white"/>
<path fill-rule="evenodd" clip-rule="evenodd" d="M71.8425 34.7374L59.2109 34.7374L59.2109 30.79L71.8425 30.79L71.8425 34.7374Z" fill="white"/>
<path fill-rule="evenodd" clip-rule="evenodd" d="M71.8425 18.9469L59.2109 18.9469L59.2109 14.9995L71.8425 14.9995L71.8425 18.9469Z" fill="white"/>
<path fill-rule="evenodd" clip-rule="evenodd" d="M71.8424 77.3683H13.4214V73.4209H71.8424V77.3683Z" fill="white"/>
</svg>
