<svg width="461" height="92" viewBox="0 0 461 92" fill="none" xmlns="http://www.w3.org/2000/svg">
<path d="M123.331 46.107H115.552V44.5512H129.943V50.3855C129.943 53.912 129.476 57.0236 128.543 59.7204C127.661 62.4171 126.468 64.699 124.964 66.5659C123.512 68.3811 121.827 69.7813 119.908 70.7666C117.989 71.7001 116.018 72.1669 113.996 72.1669C111.869 72.1669 109.743 71.5964 107.617 70.4555C105.491 69.2627 103.572 67.4994 101.86 65.1657C100.149 62.7801 98.7487 59.8241 97.6597 56.2976C96.6225 52.7192 96.1039 48.5445 96.1039 43.7733C96.1039 39.0021 96.6225 34.8533 97.6597 31.3268C98.7487 27.7484 100.149 24.7924 101.86 22.4587C103.624 20.0731 105.594 18.3099 107.772 17.1689C109.951 15.9761 112.155 15.3797 114.385 15.3797C115.629 15.3797 116.744 15.5872 117.73 16.0021C118.767 16.4169 119.648 16.8578 120.375 17.3245C121.204 17.895 121.93 18.5432 122.553 19.2693C122.968 18.4914 123.512 17.7653 124.186 17.0911C124.912 16.417 125.664 15.9761 126.442 15.7687H127.609C127.505 16.5466 127.428 17.3245 127.376 18.1024C127.324 18.8285 127.272 19.6064 127.22 20.4361C127.22 21.214 127.22 21.9919 127.22 22.7698C127.22 23.6515 127.22 24.5331 127.22 25.4147C127.272 26.2445 127.324 27.0224 127.376 27.7484C127.428 28.5782 127.505 29.382 127.609 30.16H126.442C125.249 25.8555 123.642 22.5883 121.619 20.3583C119.648 18.0765 117.496 16.9356 115.163 16.9356C113.71 16.9356 112.284 17.3504 110.884 18.1802C109.484 19.01 108.239 20.4621 107.15 22.5365C106.061 24.559 105.179 27.3076 104.505 30.7823C103.831 34.2051 103.494 38.5354 103.494 43.7733C103.494 49.1149 103.805 53.549 104.427 57.0755C105.102 60.5501 105.957 63.3247 106.995 65.3991C108.032 67.4735 109.147 68.9256 110.34 69.7554C111.584 70.5851 112.803 71 113.996 71C115.137 71 116.278 70.6888 117.418 70.0665C118.559 69.3923 119.545 68.2773 120.375 66.7215C121.256 65.1138 121.956 62.9876 122.475 60.3427C123.045 57.6978 123.331 54.3787 123.331 50.3855V46.107ZM147.087 69.0552L151.755 70.2221V71H136.196V70.2221L140.864 69.0552V37.1611L136.196 35.9942V35.2163H147.087V44.5512C147.761 42.6324 148.565 40.8951 149.499 39.3392C150.328 37.9909 151.34 36.7721 152.532 35.6831C153.725 34.594 155.151 34.0495 156.811 34.0495C157.381 34.0495 157.926 34.1013 158.444 34.2051C158.963 34.2569 159.43 34.3347 159.845 34.4384C160.311 34.594 160.726 34.7237 161.089 34.8274L158.756 40.6617C158.444 40.5061 158.107 40.3246 157.744 40.1171C157.433 39.9616 157.044 39.8319 156.578 39.7282C156.163 39.5726 155.722 39.4948 155.255 39.4948C153.907 39.4948 152.714 39.8578 151.677 40.5839C150.64 41.3099 149.784 42.1138 149.11 42.9954C148.28 44.0326 147.606 45.1995 147.087 46.496V69.0552ZM168.896 69.0552V37.1611L164.228 35.9942V35.2163H175.119V69.0552L179.786 70.2221V71H164.228V70.2221L168.896 69.0552ZM175.508 26.2704C175.508 27.2558 175.093 28.1633 174.263 28.9931C173.485 29.771 172.604 30.16 171.618 30.16C170.633 30.16 169.726 29.771 168.896 28.9931C168.118 28.1633 167.729 27.2558 167.729 26.2704C167.729 25.2851 168.118 24.4034 168.896 23.6255C169.726 22.7958 170.633 22.3809 171.618 22.3809C172.604 22.3809 173.485 22.7958 174.263 23.6255C175.093 24.4034 175.508 25.2851 175.508 26.2704ZM189.103 69.0552V37.1611L184.436 35.9942V35.2163H195.326V39.8838C195.845 38.8466 196.545 37.8871 197.427 37.0055C198.153 36.2795 199.086 35.6053 200.227 34.983C201.368 34.3606 202.716 34.0495 204.272 34.0495C205.828 34.0495 207.254 34.3347 208.551 34.9052C209.899 35.4756 211.066 36.2795 212.051 37.3167C213.037 38.302 213.789 39.5207 214.307 40.9728C214.878 42.3731 215.163 43.9548 215.163 45.7181V69.0552L219.83 70.2221V71H204.661V70.2221L208.94 69.0552V45.7181C208.94 42.036 208.343 39.443 207.151 37.939C206.01 36.3832 204.661 35.6053 203.105 35.6053C201.809 35.6053 200.694 35.9683 199.76 36.6944C198.827 37.4204 198.023 38.2242 197.349 39.1059C196.571 40.1431 195.897 41.3099 195.326 42.6064V69.0552L199.605 70.2221V71H184.436V70.2221L189.103 69.0552ZM240.418 35.6053C239.328 35.6053 238.265 35.9165 237.228 36.5388C236.243 37.1092 235.335 38.0687 234.505 39.417C233.728 40.7654 233.079 42.5546 232.561 44.7846C232.094 47.0146 231.861 49.7891 231.861 53.1082C231.861 56.4272 232.094 59.2018 232.561 61.4318C233.079 63.6618 233.702 65.4769 234.428 66.8771C235.206 68.2255 236.035 69.1849 236.917 69.7554C237.85 70.3258 238.758 70.611 239.64 70.611C240.884 70.611 241.973 70.248 242.907 69.522C243.892 68.7959 244.722 67.9921 245.396 67.1105C246.174 66.1251 246.848 64.9583 247.419 63.6099V40.2727C246.9 39.3911 246.304 38.6132 245.629 37.939C245.059 37.3685 244.333 36.8499 243.451 36.3832C242.622 35.8646 241.61 35.6053 240.418 35.6053ZM253.642 69.0552L258.309 70.2221V71H247.419V66.3326C246.848 67.4216 246.122 68.407 245.241 69.2886C244.514 70.0147 243.581 70.6629 242.44 71.2334C241.351 71.8557 240.029 72.1669 238.473 72.1669C236.813 72.1669 235.154 71.752 233.494 70.9222C231.886 70.0406 230.434 68.7959 229.138 67.1883C227.893 65.5287 226.856 63.5321 226.026 61.1984C225.248 58.8128 224.859 56.1161 224.859 53.1082C224.859 50.1003 225.248 47.4295 226.026 45.0957C226.856 42.7102 227.945 40.7135 229.293 39.1059C230.642 37.4463 232.172 36.2017 233.883 35.3719C235.595 34.4903 237.384 34.0495 239.251 34.0495C240.703 34.0495 241.947 34.2569 242.985 34.6718C244.022 35.0867 244.878 35.5275 245.552 35.9942C246.33 36.5647 246.952 37.213 247.419 37.939V18.4914L242.751 17.3245V16.5466H253.642V69.0552ZM271.145 53.1082C271.145 56.4272 271.378 59.2018 271.845 61.4318C272.364 63.6618 273.012 65.4769 273.79 66.8771C274.619 68.2255 275.527 69.1849 276.512 69.7554C277.55 70.3258 278.613 70.611 279.702 70.611C281.05 70.611 282.321 70.3517 283.513 69.8331C284.706 69.3145 285.769 68.6144 286.703 67.7328C287.636 66.8512 288.388 65.788 288.959 64.5434C289.581 63.2987 289.996 61.9504 290.203 60.4983H291.37C291.163 62.1578 290.696 63.7136 289.97 65.1657C289.296 66.5659 288.414 67.7847 287.325 68.8219C286.236 69.8591 284.966 70.6629 283.513 71.2334C282.113 71.8557 280.583 72.1669 278.924 72.1669C276.953 72.1669 275.086 71.752 273.323 70.9222C271.56 70.0406 269.978 68.7959 268.578 67.1883C267.229 65.5287 266.14 63.5321 265.311 61.1984C264.533 58.8128 264.144 56.1161 264.144 53.1082C264.144 49.9965 264.533 47.2479 265.311 44.8624C266.088 42.4768 267.1 40.5061 268.344 38.9503C269.641 37.3426 271.119 36.1239 272.778 35.2941C274.49 34.4644 276.279 34.0495 278.146 34.0495C280.013 34.0495 281.776 34.4644 283.436 35.2941C285.147 36.1239 286.625 37.3426 287.87 38.9503C289.166 40.5061 290.203 42.4768 290.981 44.8624C291.759 47.2479 292.148 49.9965 292.148 53.1082H271.145ZM278.146 35.2163C277.368 35.2163 276.59 35.4756 275.812 35.9942C275.034 36.461 274.308 37.3167 273.634 38.5613C272.96 39.806 272.389 41.4914 271.923 43.6177C271.508 45.6921 271.249 48.337 271.145 51.5524H285.147C285.043 48.337 284.758 45.6921 284.291 43.6177C283.877 41.4914 283.332 39.806 282.658 38.5613C281.984 37.3167 281.258 36.461 280.48 35.9942C279.702 35.4756 278.924 35.2163 278.146 35.2163ZM302.285 69.0552V18.4914L297.618 17.3245V16.5466H308.509V69.0552L313.176 70.2221V71H297.618V70.2221L302.285 69.0552ZM331.837 72.1669H330.67L319.001 37.1611L314.334 35.9942V35.2163H329.892V35.9942L325.613 37.1611L333.704 61.5096L342.338 34.0495H343.505L353.462 61.5096L360.619 37.939L355.563 35.9942V35.2163H367.231V35.9942L362.175 37.939L351.673 72.1669H350.506L340.471 44.629L331.837 72.1669ZM389.423 51.9413C384.911 51.9413 381.566 52.9526 379.388 54.9751C377.262 56.9458 376.198 59.6944 376.198 63.2209C376.198 65.5547 376.769 67.3698 377.91 68.6663C379.051 69.9628 380.295 70.611 381.644 70.611C382.888 70.611 383.978 70.248 384.911 69.522C385.896 68.7959 386.726 67.9921 387.4 67.1105C388.178 66.1251 388.852 64.9583 389.423 63.6099V51.9413ZM383.589 35.2163C382.033 35.2163 380.736 35.7609 379.699 36.8499C378.662 37.8871 378.143 39.2874 378.143 41.0506C378.143 41.4655 378.143 41.8285 378.143 42.1397C378.195 42.4509 378.247 42.7361 378.299 42.9954C378.351 43.2547 378.428 43.514 378.532 43.7733L372.309 45.3291C372.205 45.1735 372.127 44.9661 372.076 44.7068C372.024 44.4475 371.972 44.1623 371.92 43.8511C371.92 43.5399 371.92 43.125 371.92 42.6064C371.92 41.5174 372.179 40.4802 372.698 39.4948C373.217 38.4576 373.969 37.5501 374.954 36.7721C375.991 35.9424 377.21 35.2941 378.61 34.8274C380.062 34.3088 381.722 34.0495 383.589 34.0495C387.323 34.0495 390.253 35.1126 392.379 37.2389C394.557 39.3652 395.646 42.1916 395.646 45.7181V69.0552L400.314 70.2221V71H389.423V66.3326C388.852 67.4216 388.126 68.407 387.245 69.2886C386.519 70.0147 385.585 70.6629 384.444 71.2334C383.355 71.8557 382.033 72.1669 380.477 72.1669C376.743 72.1669 373.917 71.2852 371.998 69.522C370.131 67.7587 369.197 65.3991 369.197 62.443C369.197 60.9909 369.586 59.5389 370.364 58.0868C371.194 56.6347 372.413 55.3382 374.02 54.1972C375.68 53.0563 377.78 52.1488 380.321 51.4746C382.863 50.7485 385.896 50.3855 389.423 50.3855V45.7181C389.423 41.8285 388.827 39.1059 387.634 37.5501C386.493 35.9942 385.144 35.2163 383.589 35.2163ZM408.488 69.0552V18.4914L403.82 17.3245V16.5466H414.711V69.0552L419.378 70.2221V71H403.82V70.2221L408.488 69.0552ZM439.984 35.6053C438.895 35.6053 437.832 35.9165 436.794 36.5388C435.809 37.1092 434.901 38.0687 434.072 39.417C433.294 40.7654 432.645 42.5546 432.127 44.7846C431.66 47.0146 431.427 49.7891 431.427 53.1082C431.427 56.4272 431.66 59.2018 432.127 61.4318C432.645 63.6618 433.268 65.4769 433.994 66.8771C434.772 68.2255 435.602 69.1849 436.483 69.7554C437.417 70.3258 438.324 70.611 439.206 70.611C440.45 70.611 441.54 70.248 442.473 69.522C443.458 68.7959 444.288 67.9921 444.962 67.1105C445.74 66.1251 446.414 64.9583 446.985 63.6099V40.2727C446.466 39.3911 445.87 38.6132 445.196 37.939C444.625 37.3685 443.899 36.8499 443.018 36.3832C442.188 35.8646 441.177 35.6053 439.984 35.6053ZM453.208 69.0552L457.876 70.2221V71H446.985V66.3326C446.414 67.4216 445.688 68.407 444.807 69.2886C444.081 70.0147 443.147 70.6629 442.006 71.2334C440.917 71.8557 439.595 72.1669 438.039 72.1669C436.379 72.1669 434.72 71.752 433.06 70.9222C431.453 70.0406 430.001 68.7959 428.704 67.1883C427.459 65.5287 426.422 63.5321 425.592 61.1984C424.815 58.8128 424.426 56.1161 424.426 53.1082C424.426 50.1003 424.815 47.4295 425.592 45.0957C426.422 42.7102 427.511 40.7135 428.86 39.1059C430.208 37.4463 431.738 36.2017 433.449 35.3719C435.161 34.4903 436.95 34.0495 438.817 34.0495C440.269 34.0495 441.514 34.2569 442.551 34.6718C443.588 35.0867 444.444 35.5275 445.118 35.9942C445.896 36.5647 446.518 37.213 446.985 37.939V18.4914L442.317 17.3245V16.5466H453.208V69.0552Z" fill="black"/>
<path d="M32.114 10.7238V10.7238C36.4835 8.85118 39.9652 5.36949 41.8378 1V1V1C43.7104 5.36949 47.1921 8.85118 51.5616 10.7238V10.7238" stroke="black" stroke-width="1.94476"/>
<path d="M32.1141 20.4479V20.4479C36.4836 18.5753 39.9653 15.0936 41.8379 10.7241V10.7241V10.7241C43.7105 15.0936 47.1922 18.5753 51.5617 20.4479V20.4479" stroke="black" stroke-width="1.94476"/>
<path d="M32.1141 32.1159V32.1159C36.4836 30.2433 39.9653 26.7616 41.8379 22.3921V22.3921V22.3921C43.7105 26.7616 47.1922 30.2433 51.5617 32.1159V32.1159" stroke="black" stroke-width="1.94476"/>
<path d="M41.8353 1V37.9505" stroke="black" stroke-width="1.94476"/>
<path d="M1.00003 24.3376V24.3376C5.36952 22.465 8.85122 18.9833 10.7239 14.6138V14.6138V14.6138C12.5965 18.9833 16.0782 22.465 20.4477 24.3376V24.3376" stroke="black" stroke-width="1.94476"/>
<path d="M1.00007 34.0612V34.0612C5.36955 32.1886 8.85125 28.7069 10.7239 24.3374V24.3374V24.3374C12.5965 28.7069 16.0782 32.1886 20.4477 34.0612V34.0612" stroke="black" stroke-width="1.94476"/>
<path d="M1.00007 43.7853V43.7853C5.36955 41.9127 8.85125 38.431 10.7239 34.0615V34.0615V34.0615C12.5965 38.431 16.0782 41.9127 20.4477 43.7853V43.7853" stroke="black" stroke-width="1.94476"/>
<path d="M1.00007 53.5095V53.5095C5.36955 51.6368 8.85125 48.1551 10.7239 43.7856V43.7856V43.7856C12.5965 48.1551 16.0782 51.6368 20.4477 53.5095V53.5095" stroke="black" stroke-width="1.94476"/>
<path d="M10.7213 14.6138V64.2053" stroke="black" stroke-width="1.94476"/>
<path d="M63.2326 22.3918V22.3918C67.6021 20.5192 71.0838 17.0375 72.9564 12.668V12.668V12.668C74.829 17.0375 78.3107 20.5192 82.6802 22.3918V22.3918" stroke="black" stroke-width="1.94476"/>
<path d="M63.2333 32.1159V32.1159C67.6028 30.2433 71.0845 26.7616 72.9571 22.3921V22.3921V22.3921C74.8298 26.7616 78.3115 30.2433 82.6809 32.1159V32.1159" stroke="black" stroke-width="1.94476"/>
<path d="M63.2333 41.8395V41.8395C67.6028 39.9669 71.0845 36.4852 72.9571 32.1157V32.1157V32.1157C74.8298 36.4852 78.3115 39.9669 82.6809 41.8395V41.8395" stroke="black" stroke-width="1.94476"/>
<path d="M63.2333 51.5637V51.5637C67.6028 49.691 71.0845 46.2093 72.9571 41.8398V41.8398V41.8398C74.8298 46.2093 78.3115 49.691 82.6809 51.5637V51.5637" stroke="black" stroke-width="1.94476"/>
<path d="M72.9592 12.668V62.2595" stroke="black" stroke-width="1.94476"/>
<path d="M40.868 61.2866C37.5617 61.2866 34.5518 60.7007 32.2992 59.7417" stroke="black" stroke-width="1.94476"/>
<path d="M28.8902 57.319C28.4618 56.7329 28.2295 56.1052 28.2295 55.4525C28.2295 52.2303 33.8891 49.6182 40.8705 49.6182C42.3187 49.6182 43.71 49.7306 45.0057 49.9375" stroke="black" stroke-width="1.94476"/>
<path d="M47.0595 50.3638C50.9104 51.3636 53.5117 53.2677 53.5117 55.4522" stroke="black" stroke-width="1.94476"/>
<path d="M40.8643 57.3988C44.6235 57.3988 47.6709 56.5281 47.6709 55.454C47.6709 54.38 44.6235 53.5093 40.8643 53.5093C37.105 53.5093 34.0576 54.38 34.0576 55.454C34.0576 56.5281 37.105 57.3988 40.8643 57.3988Z" stroke="black" stroke-width="1.94476"/>
<path d="M24.3363 55.4536V80.7355C24.3363 86.1059 31.7373 90.4594 40.8668 90.4594C49.9964 90.4594 57.3973 86.1059 57.3973 80.7355V55.4536" stroke="black" stroke-width="1.94476"/>
<path d="M52.5354 72.9562L53.4703 61.7371C55.9155 60.0419 57.3973 57.8507 57.3973 55.4533C57.3973 50.083 49.9964 45.7295 40.8668 45.7295C31.7373 45.7295 24.3363 50.083 24.3363 55.4533C24.3363 60.8236 31.7373 65.1771 40.8668 65.1771C44.3172 65.1771 47.5186 64.5537 50.1689 63.4902L52.5354 72.9562Z" stroke="black" stroke-width="1.94476"/>
<path d="M45.7291 71.0117V84.6251" stroke="black" stroke-width="1.94476"/>
<path d="M37.9514 84.6251V71.0117" stroke="black" stroke-width="1.94476"/>
<path d="M30.1691 84.6245V67.1216" stroke="black" stroke-width="1.94476"/>
</svg>
