<svg width="259" height="98" viewBox="0 0 259 98" fill="none" xmlns="http://www.w3.org/2000/svg">
<g filter="url(#filter0_di_1112_937)">
<path d="M26.6916 62.4247C13.5177 63.1003 13.3207 48.0686 14.8689 40.4682C-5.39863 62.0025 7.69078 91.1371 34.7142 92.8261C56.3329 94.1772 62.0191 77.3439 62.1598 68.7584C62.1598 52.291 46.5372 28.5256 44.4257 21.8896C41.47 12.6003 45.6925 6.40747 47.8037 5C24.8338 12.0936 29.5066 33.2901 34.7142 43.0017C37.5291 49.1945 39.8656 61.7492 26.6916 62.4247Z" fill="url(#paint0_angular_1112_937)"/>
<path d="M26.6916 62.4247C13.5177 63.1003 13.3207 48.0686 14.8689 40.4682C-5.39863 62.0025 7.69078 91.1371 34.7142 92.8261C56.3329 94.1772 62.0191 77.3439 62.1598 68.7584C62.1598 52.291 46.5372 28.5256 44.4257 21.8896C41.47 12.6003 45.6925 6.40747 47.8037 5C24.8338 12.0936 29.5066 33.2901 34.7142 43.0017C37.5291 49.1945 39.8656 61.7492 26.6916 62.4247Z" stroke="#CA9E4A" stroke-width="0.844482"/>
</g>
<path d="M91.6988 76.978L98.4883 26.95H105.028L117.749 50.892L130.399 26.95H136.974L143.728 76.978H135.581L130.649 37.5273L132.722 37.9204L117.821 65.686L102.705 37.9562L104.778 37.5631L99.8462 76.978H91.6988ZM158.874 77.6927C156.825 77.6927 155.003 77.2639 153.407 76.4063C151.811 75.5248 150.548 74.3099 149.619 72.7614C148.714 71.2129 148.261 69.3904 148.261 67.294C148.261 65.2929 148.714 63.5896 149.619 62.184C150.524 60.7546 151.727 59.5635 153.228 58.6106C154.729 57.6577 156.373 56.9073 158.16 56.3593C159.97 55.7876 161.804 55.3707 163.663 55.1086C165.521 54.8466 167.248 54.7036 168.844 54.6798C168.82 51.8925 168.225 50.0105 167.057 49.0338C165.89 48.0332 164.115 47.533 161.733 47.533C160.304 47.533 158.839 47.7474 157.338 48.1762C155.837 48.5812 154.145 49.3554 152.263 50.4989L151.406 44.4241C153.121 43.3759 155.039 42.5421 157.159 41.9227C159.279 41.3033 161.471 40.9936 163.734 40.9936C166.569 40.9936 168.916 41.4939 170.774 42.4944C172.632 43.495 174.026 45.1507 174.955 47.4615C175.884 49.7723 176.348 52.8693 176.348 56.7524V64.9713C176.348 66.6865 176.42 68.0325 176.563 69.0093C176.73 69.9622 177.075 70.6411 177.599 71.0461C178.123 71.4511 178.921 71.6536 179.993 71.6536H180.851L179.922 77.6927H178.278C176.515 77.6927 175.086 77.5021 173.99 77.121C172.918 76.7398 172.048 76.2038 171.381 75.5129C170.714 74.7982 170.154 73.9525 169.702 72.9758C168.439 74.4052 166.867 75.5487 164.985 76.4063C163.127 77.2639 161.09 77.6927 158.874 77.6927ZM161.161 71.8323C162.495 71.8323 163.865 71.4988 165.271 70.8317C166.7 70.1647 167.903 69.2356 168.88 68.0444V59.7541C166.212 59.8732 163.913 60.1948 161.983 60.7189C160.077 61.2192 158.6 61.9815 157.552 63.0059C156.528 64.0303 156.016 65.3406 156.016 66.9367C156.016 68.6519 156.468 69.9026 157.373 70.6888C158.279 71.4511 159.541 71.8323 161.161 71.8323ZM194.809 77.6927C192.617 77.6927 190.854 77.2758 189.52 76.442C188.186 75.6082 187.21 74.5243 186.59 73.1902C185.995 71.8323 185.697 70.391 185.697 68.8663V23.3766H193.165V65.1857C193.165 67.1392 193.284 68.5805 193.523 69.5096C193.785 70.4148 194.273 70.9985 194.988 71.2605C195.726 71.5226 196.81 71.6536 198.24 71.6536L197.382 77.6927H194.809ZM214.941 77.6927C212.725 77.6927 210.927 77.2639 209.545 76.4063C208.187 75.5487 207.186 74.4528 206.543 73.1187C205.924 71.7846 205.614 70.3791 205.614 68.9021V47.6402H200.004L200.683 41.6725H205.614V33.3464L213.083 32.5603V41.6725H221.73V47.6402H213.083V65.1142C213.083 67.163 213.202 68.6519 213.44 69.581C213.678 70.4863 214.262 71.058 215.191 71.2963C216.12 71.5345 217.597 71.6536 219.622 71.6536H221.623L220.98 77.6927H214.941ZM235.298 77.6927C233.249 77.6927 231.427 77.2639 229.831 76.4063C228.235 75.5248 226.972 74.3099 226.043 72.7614C225.138 71.2129 224.685 69.3904 224.685 67.294C224.685 65.2929 225.138 63.5896 226.043 62.184C226.948 60.7546 228.151 59.5635 229.652 58.6106C231.153 57.6577 232.797 56.9073 234.584 56.3593C236.394 55.7876 238.228 55.3707 240.087 55.1086C241.945 54.8466 243.672 54.7036 245.268 54.6798C245.244 51.8925 244.649 50.0105 243.481 49.0338C242.314 48.0332 240.539 47.533 238.157 47.533C236.728 47.533 235.263 47.7474 233.762 48.1762C232.261 48.5812 230.569 49.3554 228.687 50.4989L227.83 44.4241C229.545 43.3759 231.463 42.5421 233.583 41.9227C235.703 41.3033 237.895 40.9936 240.158 40.9936C242.993 40.9936 245.34 41.4939 247.198 42.4944C249.056 43.495 250.45 45.1507 251.379 47.4615C252.308 49.7723 252.772 52.8693 252.772 56.7524V64.9713C252.772 66.6865 252.844 68.0325 252.987 69.0093C253.153 69.9622 253.499 70.6411 254.023 71.0461C254.547 71.4511 255.345 71.6536 256.417 71.6536H257.275L256.346 77.6927H254.702C252.939 77.6927 251.51 77.5021 250.414 77.121C249.342 76.7398 248.472 76.2038 247.805 75.5129C247.138 74.7982 246.578 73.9525 246.126 72.9758C244.863 74.4052 243.291 75.5487 241.409 76.4063C239.551 77.2639 237.514 77.6927 235.298 77.6927ZM237.585 71.8323C238.919 71.8323 240.289 71.4988 241.695 70.8317C243.124 70.1647 244.327 69.2356 245.304 68.0444V59.7541C242.636 59.8732 240.337 60.1948 238.407 60.7189C236.501 61.2192 235.024 61.9815 233.976 63.0059C232.952 64.0303 232.439 65.3406 232.439 66.9367C232.439 68.6519 232.892 69.9026 233.797 70.6888C234.703 71.4511 235.965 71.8323 237.585 71.8323Z" fill="#020625"/>
<defs>
<filter id="filter0_di_1112_937" x="0.509984" y="0.529027" width="66.1397" height="96.8638" filterUnits="userSpaceOnUse" color-interpolation-filters="sRGB">
<feFlood flood-opacity="0" result="BackgroundImageFix"/>
<feColorMatrix in="SourceAlpha" type="matrix" values="0 0 0 0 0 0 0 0 0 0 0 0 0 0 0 0 0 0 127 0" result="hardAlpha"/>
<feOffset/>
<feGaussianBlur stdDeviation="2.03383"/>
<feComposite in2="hardAlpha" operator="out"/>
<feColorMatrix type="matrix" values="0 0 0 0 0.941176 0 0 0 0 0.466667 0 0 0 0 0.219608 0 0 0 0.35 0"/>
<feBlend mode="normal" in2="BackgroundImageFix" result="effect1_dropShadow_1112_937"/>
<feBlend mode="normal" in="SourceGraphic" in2="effect1_dropShadow_1112_937" result="shape"/>
<feColorMatrix in="SourceAlpha" type="matrix" values="0 0 0 0 0 0 0 0 0 0 0 0 0 0 0 0 0 0 127 0" result="hardAlpha"/>
<feOffset dy="2.71177"/>
<feGaussianBlur stdDeviation="1.35588"/>
<feComposite in2="hardAlpha" operator="arithmetic" k2="-1" k3="1"/>
<feColorMatrix type="matrix" values="0 0 0 0 0 0 0 0 0 0 0 0 0 0 0 0 0 0 0.14 0"/>
<feBlend mode="normal" in2="shape" result="effect2_innerShadow_1112_937"/>
</filter>
<radialGradient id="paint0_angular_1112_937" cx="0" cy="0" r="1" gradientUnits="userSpaceOnUse" gradientTransform="translate(33.5799 48.9514) rotate(90) scale(43.9514 28.5799)">
<stop offset="0.14063" stop-color="#EA4B26"/>
<stop offset="0.65201" stop-color="#FBD35D"/>
</radialGradient>
</defs>
</svg>
