<svg width="524" height="90" viewBox="0 0 524 90" fill="none" xmlns="http://www.w3.org/2000/svg">
<path d="M144.531 74.9899V15.6608H158.699V74.9899H144.531ZM158.699 40.5657H154.161C154.53 34.5886 155.637 29.6445 157.481 25.7335C159.326 21.8225 161.761 18.9077 164.787 16.9891C167.812 14.9967 171.28 14.0005 175.191 14.0005C178.881 14.0005 182.091 14.8122 184.821 16.4356C187.625 17.9853 189.802 20.3466 191.352 23.5197C192.902 26.6928 193.676 30.6776 193.676 35.4741V74.9899H179.508V38.352C179.508 35.6216 179.176 33.3341 178.512 31.4893C177.848 29.5707 176.815 28.1317 175.413 27.1724C174.011 26.2131 172.277 25.7335 170.21 25.7335C168.439 25.7335 166.853 26.1393 165.451 26.951C164.049 27.689 162.831 28.759 161.798 30.161C160.765 31.4893 159.99 33.0758 159.474 34.9206C158.957 36.6916 158.699 38.5733 158.699 40.5657ZM193.676 40.5657H187.146C187.515 34.5886 188.659 29.6445 190.577 25.7335C192.57 21.8225 195.189 18.9077 198.436 16.9891C201.683 14.9967 205.373 14.0005 209.505 14.0005C213.268 14.0005 216.589 14.8122 219.467 16.4356C222.419 17.9853 224.669 20.3466 226.219 23.5197C227.842 26.6928 228.654 30.6776 228.654 35.4741V74.9899H214.486V38.352C214.486 35.6216 214.154 33.3341 213.49 31.4893C212.826 29.5707 211.792 28.1317 210.39 27.1724C209.062 26.2131 207.328 25.7335 205.188 25.7335C203.417 25.7335 201.831 26.1393 200.428 26.951C199.026 27.689 197.809 28.759 196.776 30.161C195.743 31.4893 194.968 33.0758 194.451 34.9206C193.935 36.6916 193.676 38.5733 193.676 40.5657Z" fill="black"/>
<path d="M261.853 76.6502C255.949 76.6502 250.858 75.3957 246.578 72.8868C242.372 70.3778 239.125 66.7989 236.837 62.15C234.55 57.4273 233.406 51.856 233.406 45.436C233.406 38.7209 234.55 33.0389 236.837 28.39C239.199 23.6673 242.519 20.0884 246.799 17.6532C251.079 15.2181 256.097 14.0005 261.853 14.0005C267.682 14.0005 272.7 15.2919 276.906 17.8746C281.186 20.3835 284.47 23.9993 286.758 28.7221C289.045 33.371 290.189 38.9423 290.189 45.436C290.189 52.0773 289.008 57.7225 286.647 62.3714C284.359 67.0203 281.076 70.5623 276.796 72.9975C272.59 75.4326 267.609 76.6502 261.853 76.6502ZM261.853 64.9172C266.28 64.9172 269.675 63.2569 272.036 59.9362C274.398 56.5418 275.578 51.7084 275.578 45.436C275.578 39.0899 274.398 34.2196 272.036 30.8251C269.675 27.4307 266.28 25.7335 261.853 25.7335C257.351 25.7335 253.92 27.4307 251.559 30.8251C249.197 34.1458 248.017 39.0161 248.017 45.436C248.017 51.6346 249.197 56.4311 251.559 59.8255C253.92 63.22 257.351 64.9172 261.853 64.9172Z" fill="black"/>
<path d="M294.955 74.9899V15.6608H309.123V74.9899H294.955ZM309.123 40.5657H304.585C304.954 34.5886 306.097 29.6445 308.016 25.7335C309.935 21.8225 312.48 18.9077 315.653 16.9891C318.9 14.9967 322.59 14.0005 326.722 14.0005C330.707 14.0005 334.175 14.8122 337.127 16.4356C340.153 17.9853 342.477 20.3466 344.1 23.5197C345.798 26.6928 346.646 30.6776 346.646 35.4741V74.9899H332.478V38.352C332.478 35.6216 332.072 33.3341 331.261 31.4893C330.523 29.5707 329.379 28.1317 327.829 27.1724C326.28 26.2131 324.287 25.7335 321.852 25.7335C319.933 25.7335 318.162 26.1393 316.539 26.951C314.989 27.689 313.661 28.759 312.554 30.161C311.447 31.4893 310.599 33.0758 310.008 34.9206C309.418 36.6916 309.123 38.5733 309.123 40.5657Z" fill="black"/>
<path d="M367.894 35.142H353.615C354.279 30.7145 355.718 26.951 357.932 23.8518C360.22 20.6787 363.208 18.2435 366.898 16.5463C370.661 14.8491 375.052 14.0005 380.07 14.0005C385.531 14.0005 390.106 14.9967 393.795 16.9891C397.559 18.9815 400.363 21.7487 402.208 25.2907C404.052 28.8327 404.975 32.8913 404.975 37.4665V60.4897C404.975 64.1055 405.122 67.0572 405.418 69.3448C405.787 71.5585 406.229 73.4402 406.746 74.9899H392.024C391.434 73.514 391.065 71.6692 390.917 69.4554C390.77 67.1679 390.696 64.8803 390.696 62.5928V37.4665C390.696 33.6292 389.737 30.7145 387.818 28.7221C385.973 26.7297 383.095 25.7335 379.184 25.7335C375.79 25.7335 373.17 26.619 371.326 28.39C369.481 30.0872 368.337 32.3379 367.894 35.142ZM392.578 38.9054V47.6498C387.117 47.6498 382.653 47.945 379.184 48.5353C375.716 49.0519 373.023 49.8267 371.104 50.8598C369.186 51.8929 367.82 53.0735 367.009 54.4018C366.271 55.7301 365.902 57.169 365.902 58.7187C365.902 61.0062 366.75 62.8141 368.448 64.1424C370.145 65.4707 372.395 66.1348 375.2 66.1348C378.077 66.1348 380.697 65.4338 383.058 64.0317C385.42 62.6296 387.265 60.7111 388.593 58.2759C389.995 55.8408 390.696 53.1473 390.696 50.1956H396.12C395.825 54.9184 394.902 58.9769 393.353 62.3714C391.877 65.692 389.958 68.4223 387.597 70.5623C385.309 72.6285 382.763 74.1413 379.959 75.1006C377.155 76.1337 374.351 76.6502 371.547 76.6502C367.636 76.6502 364.168 76.023 361.142 74.7685C358.19 73.4402 355.866 71.5216 354.169 69.0127C352.472 66.43 351.623 63.2569 351.623 59.4935C351.623 55.4349 352.73 51.9667 354.944 49.0888C357.231 46.1371 360.663 43.8864 365.238 42.3368C369.37 40.8609 373.576 39.9385 377.856 39.5695C382.21 39.1268 387.117 38.9054 392.578 38.9054Z" fill="black"/>
<path d="M464.31 36.6916H450.142C449.478 32.8544 448.039 30.0872 445.825 28.39C443.685 26.619 441.139 25.7335 438.187 25.7335C433.76 25.7335 430.402 27.4307 428.115 30.8251C425.901 34.1458 424.794 39.0161 424.794 45.436C424.794 51.7084 425.975 56.5418 428.336 59.9362C430.698 63.2569 434.129 64.9172 438.63 64.9172C441.656 64.9172 444.202 64.1055 446.268 62.4821C448.334 60.7848 449.736 58.239 450.474 54.8446H464.753C463.424 62.2976 460.362 67.7951 455.566 71.3372C450.769 74.8792 445.013 76.6502 438.298 76.6502C432.469 76.6502 427.451 75.3957 423.244 72.8868C419.112 70.3041 415.902 66.6882 413.615 62.0393C411.327 57.3904 410.183 51.856 410.183 45.436C410.183 38.7209 411.327 33.0389 413.615 28.39C415.902 23.6673 419.149 20.0884 423.355 17.6532C427.561 15.2181 432.505 14.0005 438.187 14.0005C442.689 14.0005 446.784 14.8491 450.474 16.5463C454.237 18.2435 457.337 20.7894 459.772 24.1838C462.207 27.5045 463.72 31.6738 464.31 36.6916Z" fill="black"/>
<path d="M494.709 76.6502C488.806 76.6502 483.714 75.3957 479.434 72.8868C475.228 70.3778 471.981 66.7989 469.694 62.15C467.406 57.4273 466.263 51.856 466.263 45.436C466.263 38.7209 467.406 33.0389 469.694 28.39C472.055 23.6673 475.376 20.0884 479.656 17.6532C483.936 15.2181 488.954 14.0005 494.709 14.0005C500.539 14.0005 505.557 15.2919 509.763 17.8746C514.043 20.3835 517.327 23.9993 519.614 28.7221C521.902 33.371 523.046 38.9423 523.046 45.436C523.046 52.0773 521.865 57.7225 519.504 62.3714C517.216 67.0203 513.932 70.5623 509.652 72.9975C505.446 75.4326 500.465 76.6502 494.709 76.6502ZM494.709 64.9172C499.137 64.9172 502.531 63.2569 504.893 59.9362C507.254 56.5418 508.435 51.7084 508.435 45.436C508.435 39.0899 507.254 34.2196 504.893 30.8251C502.531 27.4307 499.137 25.7335 494.709 25.7335C490.208 25.7335 486.777 27.4307 484.415 30.8251C482.054 34.1458 480.873 39.0161 480.873 45.436C480.873 51.6346 482.054 56.4311 484.415 59.8255C486.777 63.22 490.208 64.9172 494.709 64.9172Z" fill="black"/>
<path fill-rule="evenodd" clip-rule="evenodd" d="M14 0C6.26801 0 0 6.26801 0 14V76C0 83.732 6.26801 90 14 90H100C107.732 90 114 83.732 114 76V14C114 6.26801 107.732 0 100 0H14ZM18 10.0002C13.5817 10.0002 10 13.5819 10 18.0002C10 22.4185 13.5817 26.0002 18 26.0002C22.4183 26.0002 26 22.4185 26 18.0002C26 13.5819 22.4183 10.0002 18 10.0002ZM32.0003 18.0002C32.0003 13.5819 35.5821 10.0002 40.0003 10.0002C44.4186 10.0002 48.0003 13.5819 48.0003 18.0002C48.0003 22.4185 44.4186 26.0002 40.0003 26.0002C35.5821 26.0002 32.0003 22.4185 32.0003 18.0002ZM62 10.0002C57.5817 10.0002 54 13.5819 54 18.0002C54 22.4185 57.5817 26.0002 62 26.0002C66.4182 26.0002 69.9999 22.4185 69.9999 18.0002C69.9999 13.5819 66.4182 10.0002 62 10.0002Z" fill="black"/>
</svg>
