<svg width="618" height="90" viewBox="0 0 618 90" fill="none" xmlns="http://www.w3.org/2000/svg">
<path d="M191.806 89.4375C187.015 89.4375 182.499 88.7537 178.258 87.3861C174.016 85.9795 170.443 83.811 167.537 80.8805C164.631 77.9501 162.785 74.1405 162 69.4518L178.022 66.2869C178.375 69.8425 179.632 72.5385 181.792 74.3749C183.991 76.1723 187.113 77.0709 191.158 77.0709C195.045 77.0709 197.932 76.309 199.817 74.7852C201.702 73.2223 202.644 71.4054 202.644 69.3346C202.644 67.4981 201.898 65.9157 200.406 64.5872C198.953 63.2587 196.42 62.321 192.807 61.774L187.034 60.8362C184.757 60.4846 182.322 60.0157 179.73 59.4296C177.178 58.8045 174.763 57.8862 172.485 56.675C170.207 55.4247 168.342 53.7055 166.889 51.5174C165.436 49.3293 164.71 46.5161 164.71 43.0777C164.71 38.8969 165.829 35.3217 168.067 32.3522C170.345 29.3436 173.486 27.0579 177.492 25.495C181.497 23.893 186.072 23.092 191.217 23.092C195.968 23.092 200.307 23.7953 204.234 25.2019C208.161 26.5695 211.44 28.6012 214.071 31.2973C216.742 33.9542 218.47 37.2558 219.255 41.2022L203.233 44.4843C202.958 42.8823 202.428 41.378 201.643 39.9714C200.896 38.5648 199.738 37.4317 198.167 36.5721C196.596 35.6734 194.476 35.2241 191.806 35.2241C188.782 35.2241 186.367 35.8102 184.56 36.9823C182.793 38.1545 181.91 39.7565 181.91 41.7883C181.91 43.273 182.401 44.4843 183.382 45.422C184.403 46.3598 185.778 47.1217 187.506 47.7078C189.273 48.2548 191.256 48.7237 193.455 49.1144L200.052 50.228C203.429 50.775 206.63 51.7323 209.654 53.0998C212.717 54.4283 215.21 56.3429 217.134 58.8435C219.059 61.3442 220.021 64.6263 220.021 68.6898C220.021 73.1832 218.784 76.9733 216.31 80.06C213.875 83.1468 210.518 85.4911 206.237 87.0931C201.996 88.656 197.186 89.4375 191.806 89.4375Z" fill="black"/>
<path d="M242.463 87.9136L226.971 24.6158H245.173L255.481 77.4812H254.009L266.261 24.6158H289.587L301.78 77.6571H300.013L310.616 24.6158H327.875L312.324 87.9136H287.937L275.98 31.2973H279.043L266.85 87.9136H242.463Z" fill="black"/>
<path d="M366.693 89.4375C360.449 89.4375 354.833 88.0895 349.846 85.3934C344.898 82.6974 340.971 78.8683 338.065 73.9061C335.198 68.9048 333.765 63.0048 333.765 56.2061C333.765 49.4465 335.179 43.5856 338.006 38.6234C340.873 33.6612 344.76 29.832 349.669 27.136C354.617 24.44 360.252 23.092 366.575 23.092C370.07 23.092 373.604 23.6195 377.177 24.6744C380.79 25.7294 384.109 27.6049 387.132 30.3009C390.156 32.9578 392.591 36.6893 394.436 41.4952C396.282 46.2621 397.205 52.3575 397.205 59.7813H345.016V49.8177H381.536L379.71 52.924C379.396 48.7042 378.611 45.3048 377.354 42.726C376.098 40.1472 374.507 38.2717 372.583 37.0996C370.659 35.9274 368.499 35.3413 366.103 35.3413C363.001 35.3413 360.409 36.2204 358.328 37.9787C356.247 39.737 354.676 42.1985 353.616 45.3634C352.595 48.4893 352.084 52.123 352.084 56.2647C352.084 62.5164 353.262 67.4591 355.618 71.0928C358.014 74.7266 361.666 76.5435 366.575 76.5435C369.756 76.5435 372.485 75.7229 374.762 74.0819C377.079 72.4408 378.846 69.9402 380.064 66.5799L395.968 70.6239C394.476 75.0001 392.218 78.5753 389.194 81.3494C386.17 84.1236 382.695 86.1749 378.768 87.5034C374.88 88.7928 370.855 89.4375 366.693 89.4375Z" fill="black"/>
<path d="M433.019 89.4375C427.717 89.4375 423.103 88.109 419.176 85.4521C415.249 82.7951 412.226 78.9855 410.105 74.0233C407.984 69.061 406.924 63.1025 406.924 56.1475C406.924 49.1926 407.984 43.2535 410.105 38.3303C412.265 33.3681 415.308 29.5976 419.235 27.0188C423.162 24.4009 427.855 23.092 433.313 23.092C437.986 23.092 442.149 24.1665 445.801 26.3155C449.492 28.4645 452.496 32.0006 454.813 36.9237L452.987 37.0409V0H470.541V87.9136H453.93V75.1955L454.107 76.0746C451.986 80.6461 449.1 84.0259 445.448 86.214C441.796 88.363 437.653 89.4375 433.019 89.4375ZM439.439 76.2504C442.188 76.2504 444.643 75.5276 446.802 74.0819C448.962 72.6362 450.67 70.4286 451.927 67.4591C453.223 64.4895 453.871 60.7972 453.871 56.3819C453.871 49.7005 452.496 44.6797 449.748 41.3194C446.999 37.9592 443.602 36.279 439.557 36.279C435.316 36.279 431.9 38.0568 429.308 41.6125C426.755 45.1681 425.479 50.1303 425.479 56.4992C425.479 62.7117 426.716 67.5567 429.19 71.0342C431.703 74.5117 435.12 76.2504 439.439 76.2504Z" fill="black"/>
<path d="M515.72 89.4375C509.477 89.4375 503.861 88.0895 498.874 85.3934C493.926 82.6974 489.999 78.8683 487.093 73.9061C484.226 68.9048 482.793 63.0048 482.793 56.2061C482.793 49.4465 484.207 43.5856 487.034 38.6234C489.901 33.6612 493.788 29.832 498.697 27.136C503.645 24.44 509.28 23.092 515.603 23.092C519.098 23.092 522.632 23.6195 526.205 24.6744C529.818 25.7294 533.136 27.6049 536.16 30.3009C539.184 32.9578 541.619 36.6893 543.464 41.4952C545.31 46.2621 546.233 52.3575 546.233 59.7813H494.044V49.8177H530.564L528.738 52.924C528.424 48.7042 527.639 45.3048 526.382 42.726C525.125 40.1472 523.535 38.2717 521.611 37.0996C519.687 35.9274 517.527 35.3413 515.131 35.3413C512.029 35.3413 509.437 36.2204 507.356 37.9787C505.275 39.737 503.704 42.1985 502.644 45.3634C501.623 48.4893 501.112 52.123 501.112 56.2647C501.112 62.5164 502.29 67.4591 504.646 71.0928C507.042 74.7266 510.694 76.5435 515.603 76.5435C518.783 76.5435 521.513 75.7229 523.79 74.0819C526.107 72.4408 527.874 69.9402 529.092 66.5799L544.996 70.6239C543.504 75.0001 541.246 78.5753 538.222 81.3494C535.198 84.1236 531.723 86.1749 527.796 87.5034C523.908 88.7928 519.883 89.4375 515.72 89.4375Z" fill="black"/>
<path d="M558.603 87.9136V24.6158H575.567V39.2095L575.155 36.5721C577.079 32.3913 579.808 29.1092 583.343 26.7257C586.877 24.3032 591.138 23.092 596.125 23.092C601.073 23.092 605.118 24.2056 608.259 26.4327C611.44 28.6598 613.796 31.7466 615.328 35.6929C616.859 39.6393 617.625 44.1913 617.625 49.3489V87.9136H600.071V50.4624C600.071 45.9691 599.325 42.4916 597.833 40.03C596.341 37.5294 593.749 36.279 590.058 36.279C585.699 36.279 582.282 38.135 579.808 41.8469C577.374 45.5588 576.156 51.2439 576.156 58.9021V87.9136H558.603Z" fill="black"/>
<path d="M45 45C45 36.0998 47.6392 27.3995 52.5839 19.9993C57.5285 12.5991 64.5566 6.83136 72.7793 3.42542C81.0019 0.0194744 90.0499 -0.871674 98.7791 0.864661C107.508 2.601 115.526 6.88683 121.82 13.1802C128.113 19.4736 132.399 27.4918 134.135 36.2209C135.872 44.9501 134.981 53.9981 131.575 62.2207C128.169 70.4434 122.401 77.4715 115.001 82.4161C107.6 87.3608 98.9002 90 90 90L90 45L45 45Z" fill="black"/>
<path d="M90 45C90 53.9001 87.3608 62.6004 82.4161 70.0006C77.4715 77.4009 70.4434 83.1686 62.2207 86.5746C53.9981 89.9805 44.9501 90.8717 36.2209 89.1353C27.4918 87.399 19.4736 83.1131 13.1802 76.8198C6.88683 70.5264 2.601 62.5082 0.864662 53.779C-0.871672 45.0499 0.0194776 36.0019 3.42542 27.7792C6.83136 19.5566 12.5991 12.5285 19.9993 7.58387C27.3995 2.6392 36.0998 -1.06133e-07 45 0V45H90Z" fill="black"/>
</svg>
